<mxfile host="app.diagrams.net" agent="Mozilla/5.0 (Windows NT 10.0; Win64; x64) AppleWebKit/537.36 (KHTML, like Gecko) Chrome/134.0.0.0 Safari/537.36" version="26.2.4">
  <diagram name="第 1 页" id="AgWG9vZdhRIc1Q3gXshI">
    <mxGraphModel dx="1428" dy="751" grid="1" gridSize="10" guides="1" tooltips="1" connect="1" arrows="1" fold="1" page="1" pageScale="1" pageWidth="827" pageHeight="1169" math="0" shadow="0">
      <root>
        <mxCell id="0" />
        <mxCell id="1" parent="0" />
        <mxCell id="E1H8eOpAXRikZTj3PFFv-1" value="用户程序" style="html=1;whiteSpace=wrap;" vertex="1" parent="1">
          <mxGeometry x="105" y="80" width="110" height="50" as="geometry" />
        </mxCell>
        <mxCell id="E1H8eOpAXRikZTj3PFFv-2" value="" style="endArrow=none;html=1;rounded=0;entryX=0.5;entryY=1;entryDx=0;entryDy=0;" edge="1" parent="1" target="E1H8eOpAXRikZTj3PFFv-1">
          <mxGeometry width="50" height="50" relative="1" as="geometry">
            <mxPoint x="160" y="640" as="sourcePoint" />
            <mxPoint x="200" y="160" as="targetPoint" />
          </mxGeometry>
        </mxCell>
        <mxCell id="E1H8eOpAXRikZTj3PFFv-3" value="用户程序" style="html=1;whiteSpace=wrap;" vertex="1" parent="1">
          <mxGeometry x="105" y="640" width="110" height="50" as="geometry" />
        </mxCell>
        <mxCell id="E1H8eOpAXRikZTj3PFFv-4" value="CPU" style="html=1;whiteSpace=wrap;" vertex="1" parent="1">
          <mxGeometry x="330" y="80" width="110" height="50" as="geometry" />
        </mxCell>
        <mxCell id="E1H8eOpAXRikZTj3PFFv-5" value="" style="endArrow=none;html=1;rounded=0;entryX=0.5;entryY=1;entryDx=0;entryDy=0;" edge="1" parent="1" target="E1H8eOpAXRikZTj3PFFv-4">
          <mxGeometry width="50" height="50" relative="1" as="geometry">
            <mxPoint x="385" y="640" as="sourcePoint" />
            <mxPoint x="425" y="160" as="targetPoint" />
          </mxGeometry>
        </mxCell>
        <mxCell id="E1H8eOpAXRikZTj3PFFv-6" value="CPU" style="html=1;whiteSpace=wrap;" vertex="1" parent="1">
          <mxGeometry x="330" y="640" width="110" height="50" as="geometry" />
        </mxCell>
        <mxCell id="E1H8eOpAXRikZTj3PFFv-7" value="磁盘" style="html=1;whiteSpace=wrap;" vertex="1" parent="1">
          <mxGeometry x="550" y="80" width="110" height="50" as="geometry" />
        </mxCell>
        <mxCell id="E1H8eOpAXRikZTj3PFFv-8" value="" style="endArrow=none;html=1;rounded=0;entryX=0.5;entryY=1;entryDx=0;entryDy=0;" edge="1" parent="1" target="E1H8eOpAXRikZTj3PFFv-7">
          <mxGeometry width="50" height="50" relative="1" as="geometry">
            <mxPoint x="605" y="640" as="sourcePoint" />
            <mxPoint x="645" y="160" as="targetPoint" />
          </mxGeometry>
        </mxCell>
        <mxCell id="E1H8eOpAXRikZTj3PFFv-9" value="磁盘" style="html=1;whiteSpace=wrap;" vertex="1" parent="1">
          <mxGeometry x="550" y="640" width="110" height="50" as="geometry" />
        </mxCell>
        <mxCell id="E1H8eOpAXRikZTj3PFFv-10" value="read（）读取数据" style="html=1;verticalAlign=bottom;endArrow=block;curved=0;rounded=0;" edge="1" parent="1">
          <mxGeometry width="80" relative="1" as="geometry">
            <mxPoint x="160" y="210" as="sourcePoint" />
            <mxPoint x="380" y="210" as="targetPoint" />
          </mxGeometry>
        </mxCell>
      </root>
    </mxGraphModel>
  </diagram>
</mxfile>
